<svg width="12" height="24" viewBox="0 0 12 24" fill="none" xmlns="http://www.w3.org/2000/svg">
<path d="M5.79409 4.7365L0.588172 8.52262L0 7.71388L5.79409 3.5L11.5882 7.71388L11 8.52262L5.79409 4.7365Z" fill="#898989"/>
<mask id="mask0_1105_2649" style="mask-type:luminance" maskUnits="userSpaceOnUse" x="0" y="3" width="12" height="6">
<path d="M5.79409 4.7365L0.588172 8.52262L0 7.71388L5.79409 3.5L11.5882 7.71388L11 8.52262L5.79409 4.7365Z" fill="white"/>
</mask>
<g mask="url(#mask0_1105_2649)">
<rect width="12" height="12" fill="#898989"/>
</g>
<path d="M6.00005 20.5C5.89655 20.5 5.79355 20.4685 5.70605 20.4045L0.206055 16.4045L0.794555 15.596L6.00005 19.382L11.2061 15.596L11.7946 16.4045L6.29455 20.4045C6.20655 20.4685 6.10355 20.5 6.00005 20.5Z" fill="#898989"/>
<mask id="mask1_1105_2649" style="mask-type:luminance" maskUnits="userSpaceOnUse" x="0" y="15" width="12" height="6">
<path d="M6.00005 20.5C5.89655 20.5 5.79355 20.4685 5.70605 20.4045L0.206055 16.4045L0.794555 15.596L6.00005 19.382L11.2061 15.596L11.7946 16.4045L6.29455 20.4045C6.20655 20.4685 6.10355 20.5 6.00005 20.5Z" fill="white"/>
</mask>
<g mask="url(#mask1_1105_2649)">
<rect y="11" width="12" height="12" fill="#898989"/>
</g>
</svg>
