<svg width="23" height="24" viewBox="0 0 23 24" fill="none" xmlns="http://www.w3.org/2000/svg">
<path d="M23 4H20V9H23V4Z" fill="#FF4267"/>
<path d="M23 11H20V16H23V11Z" fill="#FF4267"/>
<path d="M16 0H0V24H16C17.654 24 19 22.654 19 21V3C19 1.346 17.654 0 16 0ZM9.5 6C10.881 6 12 7.119 12 8.5C12 9.881 10.881 11 9.5 11C8.119 11 7 9.881 7 8.5C7 7.119 8.119 6 9.5 6ZM14 17H5V15.379C5 14.488 5.585 13.709 6.44 13.457C7.235 13.222 8.303 13 9.5 13C10.697 13 11.765 13.222 12.56 13.457C13.415 13.709 14 14.488 14 15.379V17Z" fill="#FF4267"/>
</svg>
