<svg width="16" height="16" viewBox="0 0 16 16" fill="none" xmlns="http://www.w3.org/2000/svg">
<g clip-path="url(#clip0_1146_5189)">
<path d="M8.27589 10.6666L9.60922 9.33329L8.66656 8.39062L7.33322 9.72396L6.27589 8.66662L7.60922 7.33329L6.66656 6.39062L5.33322 7.72396L4.44722 6.83862C4.32221 6.71364 4.15267 6.64343 3.97589 6.64343C3.79912 6.64343 3.62958 6.71364 3.50456 6.83862L2.50456 7.83862C1.83586 8.50644 1.42573 9.38981 1.34711 10.3316C1.2685 11.2734 1.5265 12.2125 2.07522 12.982L0.195225 14.862C0.131551 14.9235 0.0807631 14.997 0.0458238 15.0784C0.0108844 15.1597 -0.0075064 15.2472 -0.00827561 15.3357C-0.00904482 15.4242 0.00782299 15.512 0.0413436 15.5939C0.0748642 15.6759 0.124366 15.7503 0.186961 15.8129C0.249557 15.8755 0.323991 15.925 0.405922 15.9585C0.487853 15.992 0.575639 16.0089 0.664159 16.0081C0.752678 16.0074 0.840158 15.989 0.921494 15.954C1.00283 15.9191 1.07639 15.8683 1.13789 15.8046L3.01789 13.9246C3.78746 14.4734 4.72679 14.7314 5.66873 14.6527C6.61066 14.574 7.49412 14.1636 8.16189 13.4946L9.16189 12.4946C9.28687 12.3696 9.35708 12.2001 9.35708 12.0233C9.35708 11.8465 9.28687 11.677 9.16189 11.552L8.27589 10.6666Z" fill="white"/>
<path d="M11.5524 9.16122C11.6775 9.28621 11.847 9.35642 12.0238 9.35642C12.2005 9.35642 12.3701 9.28621 12.4951 9.16122L13.4951 8.16122C14.1638 7.49341 14.5739 6.61004 14.6525 5.66826C14.7312 4.72647 14.4732 3.78733 13.9244 3.01789L15.8044 1.13789C15.8681 1.07639 15.9189 1.00283 15.9538 0.921494C15.9888 0.840158 16.0072 0.752678 16.0079 0.664159C16.0087 0.575639 15.9918 0.487853 15.9583 0.405922C15.9248 0.323991 15.8753 0.249557 15.8127 0.186961C15.7501 0.124366 15.6757 0.0748642 15.5937 0.0413436C15.5118 0.00782299 15.424 -0.00904482 15.3355 -0.00827561C15.247 -0.0075064 15.1595 0.0108844 15.0782 0.0458238C14.9968 0.0807631 14.9233 0.131551 14.8618 0.195225L12.9818 2.07522C12.2122 1.52641 11.2729 1.26841 10.3309 1.34715C9.389 1.42589 8.50554 1.83625 7.83777 2.50522L6.83777 3.50522C6.71279 3.63024 6.64258 3.79978 6.64258 3.97656C6.64258 4.15333 6.71279 4.32287 6.83777 4.44789L11.5524 9.16122Z" fill="white"/>
</g>
<defs>
<clipPath id="clip0_1146_5189">
<rect width="16" height="16" fill="white"/>
</clipPath>
</defs>
</svg>
