<svg width="18" height="24" viewBox="0 0 18 24" fill="none" xmlns="http://www.w3.org/2000/svg">
<path d="M15 0H3C2.20435 0 1.44129 0.31607 0.87868 0.87868C0.316071 1.44129 0 2.20435 0 3V21C0 21.7956 0.316071 22.5587 0.87868 23.1213C1.44129 23.6839 2.20435 24 3 24H15C15.7956 24 16.5587 23.6839 17.1213 23.1213C17.6839 22.5587 18 21.7956 18 21V3C18 2.20435 17.6839 1.44129 17.1213 0.87868C16.5587 0.31607 15.7956 0 15 0V0ZM16 20C16 20.2652 15.8946 20.5196 15.7071 20.7071C15.5196 20.8946 15.2652 21 15 21H3C2.73478 21 2.48043 20.8946 2.29289 20.7071C2.10536 20.5196 2 20.2652 2 20V4C2 3.73478 2.10536 3.48043 2.29289 3.29289C2.48043 3.10536 2.73478 3 3 3H15C15.2652 3 15.5196 3.10536 15.7071 3.29289C15.8946 3.48043 16 3.73478 16 4V20Z" fill="#FFAF2A"/>
<path d="M12.5459 12.5819C11.8845 11.9659 11.095 11.5038 10.2339 11.2289L9.56589 10.9739V7.77394C10.5077 7.85179 11.4323 8.07091 12.3089 8.42394L12.9499 6.81594C11.874 6.37621 10.7277 6.13368 9.56589 6.09994V4.64294H8.39989V6.11794C7.47027 6.1727 6.57801 6.50307 5.83689 7.06694C5.53547 7.30449 5.29332 7.60878 5.1295 7.95584C4.96569 8.3029 4.8847 8.68325 4.89289 9.06694C4.87176 9.76041 5.10792 10.4372 5.55589 10.9669C6.13873 11.5709 6.85931 12.0245 7.65589 12.2889L8.3949 12.5619V15.8489C7.78334 15.8318 7.17573 15.7449 6.58389 15.5899C5.9748 15.4458 5.38254 15.238 4.81689 14.9699V16.8269C5.95228 17.2887 7.16938 17.5159 8.3949 17.4949V19.3469H9.56289V17.4399C10.5436 17.3868 11.4835 17.0304 12.2529 16.4199C12.5551 16.1614 12.796 15.8388 12.9581 15.4755C13.1201 15.1123 13.1993 14.7176 13.1899 14.3199C13.2058 13.6795 12.9753 13.0574 12.5459 12.5819ZM8.39289 10.5399C7.9749 10.401 7.59041 10.1766 7.26389 9.88094C7.05352 9.65478 6.94102 9.35466 6.95089 9.04594C6.94857 8.89232 6.98048 8.7401 7.04431 8.60035C7.10813 8.46059 7.20227 8.33679 7.31989 8.23794C7.62908 7.99478 8.00141 7.84522 8.39289 7.80694V10.5399ZM9.56089 15.7749V12.9749C9.99364 13.1104 10.3975 13.3251 10.7519 13.6079C10.8684 13.7139 10.9605 13.8439 11.022 13.9889C11.0835 14.1339 11.1128 14.2905 11.1079 14.4479C11.1092 15.1739 10.5936 15.6163 9.56089 15.7749Z" fill="#FFAF2A"/>
</svg>
