<svg width="16" height="16" viewBox="0 0 16 16" fill="none" xmlns="http://www.w3.org/2000/svg">
<path d="M8.36768 9.68213V10.9788C8.83968 10.8988 9.07568 10.6941 9.07568 10.3641C9.07568 10.0128 8.68901 9.82946 8.36768 9.68213Z" fill="white"/>
<path d="M6.98193 7.20313C6.98193 7.57113 7.3146 7.7358 7.65393 7.88513V6.66113C7.20593 6.72713 6.98193 6.9078 6.98193 7.20313Z" fill="white"/>
<path d="M12.0002 2L10.0002 0L8.00016 2L6.00016 0L4.00016 2L1.3335 0V15.3333C1.3335 15.702 1.63216 16 2.00016 16H14.0002C14.3682 16 14.6668 15.702 14.6668 15.3333V0L12.0002 2ZM8.3675 12.2187V13.2867H7.65416V12.24C6.80683 12.2227 6.0635 12.0733 5.42483 11.792V10.4173C6.02483 10.714 6.97683 10.974 7.65416 11.016V9.40133C6.4615 8.93867 5.41483 8.49 5.41483 7.20333C5.41483 6.03467 6.48683 5.48533 7.65416 5.37V4.57267H8.3675V5.34867C9.16216 5.38333 9.8815 5.54333 10.5235 5.828L10.0342 7.04667C9.49283 6.82467 8.93683 6.68933 8.3675 6.64067V8.17733C9.63283 8.664 10.6435 9.10733 10.6435 10.2867C10.6435 11.53 9.61083 12.1047 8.3675 12.2187Z" fill="white"/>
</svg>
