<svg width="16" height="16" viewBox="0 0 16 16" fill="none" xmlns="http://www.w3.org/2000/svg">
<path d="M12.0002 2L10.0002 0L8.00016 2L6.00016 0L4.00016 2L1.3335 0V15.3333C1.3335 15.702 1.63216 16 2.00016 16H14.0002C14.3682 16 14.6668 15.702 14.6668 15.3333V0L12.0002 2ZM8.66683 12.6667H4.00016V11.3333H8.66683V12.6667ZM8.66683 10H4.00016V8.66667H8.66683V10ZM8.66683 7.33333H4.00016V6H8.66683V7.33333ZM12.0002 12.6667H10.0002V11.3333H12.0002V12.6667ZM12.0002 10H10.0002V8.66667H12.0002V10ZM12.0002 7.33333H10.0002V6H12.0002V7.33333Z" fill="white"/>
</svg>
