<svg width="16" height="16" viewBox="0 0 16 16" fill="none" xmlns="http://www.w3.org/2000/svg">
<path d="M8.47313 0.200184C8.3454 0.0788694 8.17596 0.0112305 7.9998 0.0112305C7.82364 0.0112305 7.6542 0.0788694 7.52646 0.200184C7.30113 0.42485 1.9998 5.80752 1.9998 9.33352C1.99205 10.1236 2.14195 10.9073 2.44073 11.6388C2.73952 12.3702 3.18118 13.0347 3.73988 13.5934C4.29859 14.1521 4.9631 14.5938 5.69456 14.8926C6.42601 15.1914 7.20971 15.3413 7.9998 15.3335C8.78988 15.3413 9.57358 15.1914 10.305 14.8926C11.0365 14.5938 11.701 14.1521 12.2597 13.5934C12.8184 13.0347 13.2601 12.3702 13.5589 11.6388C13.8576 10.9073 14.0075 10.1236 13.9998 9.33352C13.9998 5.80752 8.69846 0.42485 8.47313 0.200184ZM8.66646 12.0002H7.9998C7.64799 12.006 7.2986 11.9411 6.97242 11.8091C6.64623 11.6772 6.34992 11.481 6.10112 11.2322C5.85232 10.9834 5.65612 10.6871 5.52418 10.3609C5.39224 10.0347 5.32727 9.68532 5.33313 9.33352V8.66685H6.66646V9.33352C6.66646 9.68714 6.80694 10.0263 7.05699 10.2763C7.30704 10.5264 7.64618 10.6668 7.9998 10.6668H8.66646V12.0002Z" fill="white"/>
</svg>
